<svg width="1280" height="101" viewBox="0 0 1280 101" fill="none" xmlns="http://www.w3.org/2000/svg">
<path d="M0 0.123291V94.1203C3.20029 93.5359 6.13175 92.8228 6.98943 91.9807C18.152 91.9807 30.1851 92.7797 22.4916 90.8635C24.2582 89.652 34.6399 90.0043 39.5556 90.1933C43.2167 91.0526 52.1519 92.5821 54.6097 92.2298C57.9892 94.6788 66.8348 89.0333 68.9086 88.0193C68.755 88.7927 83.4635 91.508 85.5501 90.8292C78.3943 89.6004 85.5501 88.2514 100.911 87.2374C97.4936 84.8916 109.335 88.0967 116.721 87.7358C118.001 90.1762 130.725 85.3727 133.362 87.1686C137.894 85.4501 150.785 82.6746 149.914 85.0376C153.204 85.6048 162.997 87.2546 166.556 85.8196C162.715 86.9452 183.197 91.1385 183.197 89.1192C183.197 87.0999 199.736 84.6767 199.736 89.5489C199.736 84.9087 216.186 90.4082 216.186 90.3566C216.186 89.9527 233.199 87.1515 233.199 87.8733C233.199 90.7261 249.072 93.2352 249.072 91.0183C249.072 88.8013 265.944 90.5456 265.944 90.305C265.944 86.9452 282.406 88.9216 282.406 91.0097C282.406 92.3244 300.328 93.407 300.328 89.4286C300.328 88.6552 315.318 91.0182 315.318 92.8055C315.318 93.6648 329.489 99.3103 329.489 97.2395C329.489 97.2395 346.937 98.7862 346.937 97.7121C346.937 99.9376 363.655 100.788 363.655 100.118C363.655 101.656 380.988 94.5843 380.988 95.117C380.988 95.6498 397.181 95.117 397.181 95.4092C397.181 94.7733 415.205 95.6412 415.205 96.2685C415.205 92.0838 423.168 88.1053 423.168 89.6692C423.168 93.1063 438.196 88.6294 438.196 87.6584C438.196 89.0849 454.543 87.0827 454.543 88.174C454.543 91.6111 470.596 86.9796 470.596 89.3168C470.596 91.1815 486.841 89.3169 486.841 88.2772C486.841 88.5693 502.624 85.3212 502.624 86.3008C502.624 84.4877 519.573 87.7873 519.573 87.16C519.573 86.971 534.55 82.8636 534.55 81.6521C534.55 81.4029 551.64 86.507 551.64 83.3706C551.64 81.1021 568.281 84.7025 568.281 83.2675C568.281 82.0044 585.525 86.7047 585.525 81.3341C585.525 81.9099 600.886 86.232 600.886 85.3899C600.886 86.2492 618.155 87.6671 618.155 89.0763C618.155 87.9764 638.393 91.0784 638.393 88.7927C638.393 92.9087 657.326 94.2749 657.326 90.5113C657.326 91.8947 674.902 90.2792 674.902 89.3082C674.902 91.0784 691.544 89.8754 691.544 89.8152C691.544 92.2986 708.48 91.7228 708.48 91.9463C708.48 89.0676 724.788 89.609 724.788 88.449C724.788 89.1794 742.71 93.8453 742.71 91.6885C742.71 92.3587 759.633 91.8002 759.633 90.8292C759.633 86.9366 775.929 89.1106 775.929 88.8013C775.929 88.492 790.817 84.0065 790.817 84.3502C790.817 83.594 807.919 86.2234 807.919 84.0666C807.919 84.0666 827.21 91.3447 827.21 87.9162C827.21 87.3577 841.356 80.028 841.356 81.7208C841.356 82.9066 857.997 81.7895 857.997 80.0796C857.997 78.3696 875.586 79.9592 875.586 79.6413C875.586 77.2869 893.508 81.7895 893.508 81.0849C893.508 80.3803 911.148 81.5833 911.148 82.898C911.148 82.1505 928.288 81.7122 928.288 80.7069C928.288 80.2429 945.659 82.5801 945.659 82.2622C945.659 81.6349 963.082 84.9345 963.082 79.9764C963.082 80.5608 980.133 81.0248 980.133 83.9979C980.133 85.9485 997.914 80.1311 997.914 79.7874C997.914 75.2504 1014.88 81.0592 1014.88 83.0441C1014.88 79.9507 1032.44 84.2643 1032.44 81.7208C1032.44 82.3567 1049.43 86.7992 1049.43 84.2987C1049.43 82.4942 1065.95 82.898 1065.95 83.2933C1065.95 82.0043 1082.75 80.7155 1082.75 80.5952C1082.75 74.3739 1099.11 79.0484 1099.11 80.6983C1099.11 82.5457 1114.65 86.7562 1114.65 85.854C1114.65 89.7121 1131.29 86.7132 1131.29 83.9721C1131.29 87.1601 1147.93 80.7842 1147.93 82.3395C1147.93 83.68 1164.09 85.0977 1164.09 83.6628C1164.09 85.2696 1181.9 83.9807 1180.43 83.7745C1179.36 82.5629 1199.54 83.8433 1198.28 84.3588C1191.42 84.7111 1212.9 86.825 1215.56 86.0774C1219.49 88.9646 1236.45 88.5865 1233.19 86.6273C1235.95 85.029 1253.5 88.8614 1250.67 89.6863C1254.77 89.9097 1264.24 90.4425 1269.07 88.9989C1269.72 89.4543 1275.3 88.5435 1280 87.5124V0.123291H0Z" fill="#341F30"/>
</svg>
